<?xml version="1.0" encoding="utf-8"?>
<!-- Generator: Adobe Illustrator 23.0.3, SVG Export Plug-In . SVG Version: 6.00 Build 0)  -->
<svg version="1.1" id="Capa_1" xmlns="http://www.w3.org/2000/svg" xmlns:xlink="http://www.w3.org/1999/xlink" x="0px" y="0px"
	 viewBox="0 0 1200 1200" enable-background="new 0 0 1200 1200" xml:space="preserve">
<g>
	<g>
		<path fill="#82B69F" d="M868.195,837.981c0.807,1.232,1.574,2.506,2.299,3.821C869.768,840.487,869.002,839.212,868.195,837.981z"
			/>
		<path fill="#82B69F" d="M865.657,834.438c0.862,1.104,1.685,2.246,2.465,3.432C867.342,836.685,866.52,835.54,865.657,834.438z"/>
		<path fill="#82B69F" d="M862.803,831.108c0.936,0.995,1.835,2.031,2.687,3.111C864.635,833.141,863.74,832.104,862.803,831.108z"
			/>
		<path fill="#82B69F" d="M868.451,888.231c-2.192-2.066-4.119-4.439-5.994-6.806c-7.317-9.228-3.721-22.349-11.181-31.573
			c-0.572-0.706-0.741-2.074-0.535-3.005c1.545-6.987,4.355-13.373,8.739-18.937c1.096,0.945,2.136,1.944,3.132,2.988
			c-3.942-4.129-8.617-7.526-14.237-9.998c-19.051-8.382-38.602-14.369-59.607-15.616c-34.609-2.059-69.175-4.807-103.766-7.194
			c-8.831-0.61-17.68-0.951-26.521-1.415c-5.582,8.11-11.163,16.22-16.745,24.331c28.079-0.923,56.099-1.014,84.125,2.015
			c18.352,1.984,36.884,2.259,55.313,3.587c18.636,1.342,20.82,4.224,21.121,23.289c0.143,9.008-3.12,15.792-10.363,20.755
			c-4.264,2.922-8.49,6.112-13.18,8.155c-18.98,8.27-38.044,16.219-59.006,18.442c-30.882,3.273-61.7,7.149-92.564,10.596
			c-11.763,1.314-23.534,1.501-35.418,0.728c-20.631-1.342-41.317-1.972-61.99-2.569c-2.203-0.064-4.402-0.17-6.604-0.248
			c-0.789,3.109-3.741,5.716-7.458,5.824c-1.653,0.057-4.075-1.134-4.903-2.504c-0.699-1.154-0.91-2.496-0.785-3.865
			c-18.943-0.938-37.814-2.478-56.589-4.825c-0.847,1.809-2.515,2.963-4.649,3.611c-3.916,1.185-7.431-0.219-8.854-3.285
			c-0.304-0.073-0.566-0.148-0.887-0.218c0.195-0.248,0.347-0.464,0.529-0.703c-0.013-0.047-0.039-0.087-0.052-0.136
			c-0.104-0.386-0.136-0.787-0.144-1.187c-14.638-2.164-29.216-4.849-43.717-8.183c-5.032-1.158-10.132-2.26-14.948-4.063
			c-7.085-2.65-12.823-7.176-16.62-13.959c-2.352-4.2-1.43-9.784,2.746-11.437c11.658-4.615,23.248-9.63,35.28-13.013
			c13.485-3.792,27.414-6.023,41.173-8.819c7.244-1.473,14.645-2.29,21.781-4.146c10.118-2.632,20.272-3.727,30.716-3.608
			c7.362,0.082,14.753-0.773,22.103-1.5c8.463-0.836,16.921-1.716,25.378-2.611c8.457-0.893,16.912-1.8,25.369-2.688
			c-7.84-8.404-15.68-16.808-23.52-25.213c-7.872-0.229-15.699,0.069-23.491,0.715c-0.072,3.964-3.425,8.459-6.925,9.214
			c-3.469,0.751-7.667-3.185-8.107-7.541c-5.537,0.765-11.061,1.658-16.574,2.669c-16.727,3.065-33.435,6.239-50.151,9.368
			c-0.586,3.896-3.7,6.876-8.051,7.141c-3.783,0.231-7.146-1.563-8.355-4.107c-11.211,2.068-22.427,4.106-33.662,6.039
			c-12.086,2.081-23.75,5.277-35.077,9.598c-1.5,3.015-5.714,4.579-9.229,3.838c-3.936,1.954-7.648,4.478-11.259,7.009
			c-4.806,3.372-9.238,7.271-13.955,10.776c-3.824,2.841-5.934,6.584-6.16,11.229c-0.214,4.416-0.346,8.886,0.085,13.273
			c2.459,25.002,4.355,50.088,9.838,74.695c4.224-1.186,8.591-2.015,12.64-3.636c4.313-1.727,8.512-2.727,12.676-2.518
			c-0.257-0.213-0.541-0.384-0.795-0.603c-2.067-1.776-3.616-5.383-3.532-8.089c0.07-2.34,2.79-4.605,3.882-6.232
			c2.364-0.125,3.583-0.575,4.36-0.169c9.199,4.777,18.352,9.625,27.453,14.568c1.98,1.072,2.206,5.984,0.633,8.689
			c-0.049,0.084-0.12,0.138-0.171,0.219c19.356,3.296,38.665,7.009,58.489,6.294c13.855,2.131,27.724,3.984,41.779,2.053
			c11.43,5.128,23.684,4.613,35.703,4.821c0.505,0.005,0.975,0.011,1.391,0.021c21.442,0.489,42.915-0.1,64.353-0.24
			c28.157-0.183,56.075-4.076,84.294-3.287c16.912,0.473,33.943-2.465,50.888-4.198c11.783-1.204,23.545-2.737,35.25-4.556
			c8.035-1.248,16.167-2.567,23.886-5.02c21.848-6.941,44.43-11.481,65.486-21.122c9.328-4.27,19.766-6.113,29.701-9.058
			c5.196-10.073,5.582-20.784,6.056-31.821C875.838,890.762,870.695,890.348,868.451,888.231z M742.712,942.348
			c-2.139,1.486-5.581,2.452-7.993,1.851c-2.666-0.658-5.505-2.946-6.979-5.32c-1.381-2.242-2.196-6.005-1.228-8.214
			c0.979-2.236,4.438-3.379,6.074-4.504c6.715,0.25,10.547,3.07,12.594,8.223C746.478,937.607,745.079,940.707,742.712,942.348z
			 M814.218,893.178c-3.562,0.255-6.239-2.903-4.636-5.113c1.031-1.418,2.983-2.158,5.438-3.83c1.28,2.156,2.713,4.171,3.524,6.411
			C818.66,890.978,815.784,893.059,814.218,893.178z"/>
		<path fill="#82B69F" d="M871.531,843.686c-0.328-0.645-0.69-1.254-1.036-1.881c-0.88,1.845-1.75,3.692-2.521,5.579
			c-1.623,3.981-2.061,8.353,1.44,11.455c3.507,3.112,6.537,6.503,8.808,10.313c0.572,5.757,0.632,11.612,0.353,17.627
			c0.596-12.836-0.256-24.956-4.648-36.909C873.164,847.794,872.526,845.647,871.531,843.686z"/>
		<path fill="#DAA383" d="M722.562,981.77c-23.523,2.113-46.919,6.04-70.702,4.292c-5.108-0.376-10.327,0.481-15.475,0.978
			c-15.447,1.488-30.864,3.241-46.437,1.654c-3.643-0.371-7.405-0.055-11.068,0.346c-29.529,3.225-59.061,1.238-88.525-0.512
			c-29.478-1.749-58.932-4.318-88.291-7.502c-21.283-2.309-42.354-6.506-63.599-9.251c-8.346-1.078-13.424-5.338-16.962-12.36
			c-5.912,2.738-9.113,7.358-9.125,13.875c-0.013,7.358,0.93,14.776,0.278,22.062c-1.625,18.169,3.035,34.981,9.716,51.495
			c1.38,3.411,2.685,6.851,4.025,10.278c1.098-0.146,2.173-0.394,3.223-0.743c-0.29-2.197-0.894-4.406-0.809-6.587
			c0.23-5.906,3.274-8.856,7.976-7.941c15.962,3.103,31.845,6.662,47.883,9.288c16.037,2.625,32.299,3.878,48.325,6.553
			c12.107,2.02,24.262,3.553,36.441,4.838c-0.71-7.069,6.303-13.604,13.689-12.594c3.528,0.482,7.026,6.312,5.753,9.488
			c-0.713,1.771-1.619,3.336-2.745,4.724c14.616,1.329,29.252,2.468,43.868,3.807c5.868,0.538,11.92,1.056,17.696,0.239
			c18.488-2.616,36.888-0.768,55.359-0.202c50.373,1.544,100.314-1.027,149.89-11.963c36.256-7.998,71.544-18.381,106.095-31.712
			c8.25-3.182,16.519-6.674,25.659-6.534c0.409-1.393,1.244-2.811,1.163-4.175c-1.1-18.875-2.132-37.757-3.622-56.603
			c-0.576-7.273-2.405-14.402-7.859-19.919c-20.311,12.474-42.569,19.891-65.16,27.224
			C780.86,973.521,752.09,979.117,722.562,981.77z M660.061,1054.942c-4.052,0.394-8.203-2.958-8.692-6.946
			c-0.32-2.595,2.496-5.882,5.573-6.633c4.755-1.159,9.35,1.081,9.887,4.855C667.41,1050.25,664.079,1054.539,660.061,1054.942z"/>
		<path fill="#82B69F" d="M758.757,1076.676c-7.979,1.367-15.914,3.023-23.87,4.527c0.966,1.315,1.552,2.808,1.393,4.327
			c-0.408,3.967-4.444,7.566-8.664,7.733c-3.807,0.145-9.08-3.632-9.408-6.757c-0.084-0.8,0.093-1.699,0.465-2.615
			c-29.728,4.232-59.584,6.718-89.696,6.078c-33.221-0.706-66.486-0.052-99.671-1.437c-26.512-1.106-53.133-2.073-79.377-6.989
			c-8.698-1.629-17.603-2.125-26.36-3.482c-24.07-3.733-48.125-7.554-72.152-11.542c-8.121-1.348-15.654-4.344-21.796-10.137
			c-1.05,0.349-2.126,0.597-3.223,0.743c-3.458,11.782-3.267,23.321,2.077,34.601c0.939,1.983,1.218,4.269,1.93,6.37
			c3.533,10.411,10.454,17.508,20.579,21.884c30.024,12.978,60.901,22.799,93.535,26.618c11.051,1.294,22.053,1.928,33.211,1.662
			c20.695-0.491,41.43,0.382,62.11-0.345c23.709-0.833,47.281-0.061,70.907,1.884c8.764,0.722,17.736-0.652,26.579-1.45
			c11.059-0.999,22.077-2.457,33.126-3.586c5.884-0.602,11.831-1.561,17.695-1.263c27.573,1.403,54.832-2.005,81.743-6.831
			c23.239-4.165,46.158-10.533,68.845-17.2c14.336-4.214,27.586-12.177,35.86-24.856c9.84-15.074,15.653-31.952,11.946-50.606
			c-1.008-5.071-2.342-10.08-3.525-15.116c-10.764,13.076-25.324,19.996-40.947,25.125
			C814.691,1063.002,787.261,1071.791,758.757,1076.676z M672.56,1132.271c-3.126-0.191-6.015-1.055-6.903-4.765
			c0.096,0.404,0.227,0.76,0.368,1.1c-0.557,0.256-1.118,0.509-1.701,0.734c-1.908-0.704-4.265-0.917-5.485-2.204
			c-1.105-1.165-1.702-3.702-1.26-5.281c1.361-4.93,3.8-9.476,8.55-11.944c1.579-0.815,4.604-1.234,5.587-0.335
			c1.972,1.845,4.469,4.904,4.159,7.097c-0.183,1.316-0.559,2.499-1.035,3.611c-0.024-0.015-0.051-0.024-0.075-0.039
			c1.134,0.69,2.17,1.491,3.016,1.936C678.91,1128.778,676.672,1132.531,672.56,1132.271z"/>
		<path fill="#82B69F" d="M673.154,1119.409c-0.583-0.233-1.181-0.391-1.786-0.416
			C671.972,1119.018,672.57,1119.176,673.154,1119.409z"/>
		<path fill="#EED9B4" d="M859.043,1024.321c-34.551,13.33-69.839,23.713-106.095,31.712
			c-49.575,10.936-99.516,13.506-149.89,11.963c-18.472-0.567-36.871-2.415-55.359,0.202c-5.776,0.817-11.829,0.3-17.696-0.239
			c-14.616-1.339-29.251-2.478-43.868-3.807c-2.069,2.552-4.903,4.478-8.842,5.797c-2.19,0.806-7.346-3.18-7.857-7.12
			c-0.013-0.099,0.012-0.196,0.002-0.295c-12.179-1.286-24.334-2.818-36.441-4.838c-16.027-2.675-32.289-3.928-48.325-6.553
			c-16.038-2.626-31.922-6.185-47.883-9.288c-4.702-0.915-7.746,2.036-7.976,7.941c-0.085,2.182,0.519,4.39,0.809,6.587
			c6.142,5.792,13.675,8.789,21.796,10.137c24.028,3.988,48.083,7.81,72.152,11.542c8.757,1.357,17.662,1.853,26.36,3.482
			c26.243,4.916,52.864,5.882,79.377,6.989c33.186,1.385,66.451,0.73,99.671,1.437c30.112,0.64,59.968-1.846,89.696-6.078
			c1.118-2.749,3.99-5.648,6.816-6.444c3.377-0.956,7.338,0.954,9.398,3.757c7.956-1.504,15.891-3.161,23.87-4.527
			c28.504-4.885,55.934-13.673,83.312-22.661c15.623-5.128,30.183-12.049,40.947-25.125c0.562-3.701,1.124-7.402,1.686-11.103
			C875.562,1017.647,867.293,1021.139,859.043,1024.321z"/>
		<path fill="#EED9B4" d="M777.222,951.267c-7.719,2.452-15.851,3.772-23.886,5.02c-11.705,1.818-23.467,3.352-35.25,4.556
			c-16.945,1.733-33.976,4.671-50.888,4.198c-28.219-0.789-56.137,3.104-84.294,3.287c-21.438,0.139-42.911,0.728-64.353,0.24
			c-0.417-0.01-0.887-0.016-1.391-0.021c-12.019-0.208-24.273,0.307-35.703-4.821c-14.055,1.931-27.924,0.078-41.779-2.053
			c-19.824,0.715-39.133-2.998-58.489-6.294c-1.783,2.873-4.752,4.341-7.686,3.639c-8.924-2.128-17.103-6.18-24.144-12.023
			c-4.164-0.209-8.363,0.791-12.676,2.518c-4.05,1.621-8.416,2.45-12.64,3.636c-0.848,2.089-1.694,4.178-2.541,6.267
			c3.538,7.022,8.616,11.282,16.962,12.36c21.245,2.745,42.316,6.942,63.599,9.251c29.36,3.184,58.813,5.753,88.291,7.502
			c29.463,1.75,58.995,3.737,88.525,0.512c3.663-0.401,7.425-0.717,11.068-0.346c15.572,1.587,30.99-0.166,46.437-1.654
			c5.148-0.496,10.367-1.353,15.475-0.978c23.783,1.748,47.178-2.179,70.702-4.292c29.528-2.653,58.298-8.249,86.662-17.457
			c22.591-7.333,44.849-14.75,65.16-27.224c0.306-5.453,0.194-10.854-1.975-16.002c-9.935,2.945-20.373,4.788-29.701,9.058
			C821.652,939.786,799.071,944.326,777.222,951.267z M459.32,983.196c-2.487-0.781-4.48-3.174-6.025-4.341
			c-0.739-5.728,2.777-10.15,6.365-9.37c3.176,0.697,5.509,2.416,6.194,5.713C466.737,979.563,463.027,984.351,459.32,983.196z"/>
		<path fill="#EFE07C" d="M568.638,824.443c9.977,4.033,19.953,8.067,29.93,12.1c0.391-9.361-0.105-18.781,1.851-28.04
			c-2.88-0.611-5.882-0.896-8.613-1.909c-4.429-1.641-7.457-5.008-8.292-9.666c-0.91-5.078-1.635-10.265-1.672-15.409
			c-0.075-10.356,0.448-20.715,0.578-31.074c0.086-6.859,1.868-13.128,5.579-18.902c5.004-7.785,14.1-8.885,20.853-2.23
			c2.065,2.033,4.313,4.41,5.162,7.052c2.716,8.445,5.078,17.028,7.069,25.674c1.576,6.848-0.586,13.182-4.294,19.007
			c2.409,12.292,4.791,24.59,7.24,36.874c0.859,4.312,1.88,8.59,2.827,12.883c6.392-1.09,10.25-6.031,14.881-9.796
			c5.582-8.111,11.163-16.221,16.745-24.331c-0.141-17.274-3.783-33.411-13.14-48.372c-10.538-16.848-19.913-34.418-30.088-51.501
			c-6.074-10.2-11.208-20.717-14.141-32.267c-2.9-11.413-5.833-22.82-8.956-34.173c-0.964-3.506-2.344-6.955-3.99-10.199
			c-1.726-3.402-7.409-5.663-11.559-4.802c-4.047,0.84-6.228,3.814-7.026,7.629c-0.903,4.318-1.507,8.706-2.075,13.085
			c-4.17,32.156-8.155,64.34-15.504,95.984c-2.501,10.769-4.694,21.613-7.395,32.33c-2.952,11.714-3.435,23.282,0.51,34.842
			C552.957,807.634,560.797,816.039,568.638,824.443L568.638,824.443z"/>
		<path fill="#EED9B4" d="M626.525,852.626c-0.117,5.82-0.167,11.649-0.526,17.456c-0.344,5.535-3.311,10.113-6.385,10.251
			c-4.888,0.219-8.354-2.653-10.846-6.235c-2.009-2.887-3.437-6.399-4.271-9.842c-2.222-9.178-3.984-18.468-5.929-27.713
			c-9.977-4.033-19.953-8.067-29.93-12.1l-0.001,0c-8.457,0.888-16.912,1.795-25.369,2.688c-8.457,0.894-16.915,1.775-25.378,2.611
			c-7.349,0.727-14.741,1.581-22.103,1.5c-10.444-0.118-20.598,0.976-30.716,3.608c-7.136,1.856-14.537,2.673-21.781,4.146
			c-13.759,2.796-27.688,5.027-41.173,8.819c-12.032,3.382-23.622,8.398-35.28,13.013c-4.176,1.653-5.098,7.237-2.746,11.437
			c3.797,6.783,9.535,11.309,16.62,13.959c4.816,1.802,9.916,2.905,14.948,4.063c14.502,3.335,29.079,6.019,43.717,8.183
			c-0.069-3.312,2.943-6.881,6.384-7.114c3.948-0.272,8.471,3.266,8.283,6.65c-0.051,0.91-0.281,1.684-0.608,2.382
			c18.775,2.347,37.646,3.887,56.589,4.825c0.312-3.454,2.992-7.088,7.06-8.366c1.66,1.263,4.703,2.448,5.724,4.6
			c0.678,1.426,0.716,2.914,0.363,4.31c2.202,0.078,4.401,0.184,6.604,0.248c20.672,0.597,41.358,1.227,61.99,2.569
			c11.883,0.773,23.655,0.586,35.418-0.728c30.864-3.447,61.682-7.323,92.564-10.596c20.962-2.223,40.026-10.172,59.006-18.442
			c4.69-2.043,8.916-5.234,13.18-8.155c7.243-4.964,10.506-11.747,10.363-20.755c-0.301-19.065-2.484-21.947-21.121-23.289
			c-18.43-1.328-36.961-1.603-55.313-3.587c-28.026-3.029-56.046-2.938-84.125-2.015c-4.632,3.765-8.489,8.706-14.881,9.796
			C626.747,838.077,626.671,845.351,626.525,852.626z"/>
		<path fill="#DAA383" d="M603.623,785.102c0.034-5.404,2.368-6.815,8.996-5.479c1.427,0.287,2.781,0.938,4.169,1.422
			c3.708-5.825,5.87-12.159,4.294-19.007c-1.99-8.647-4.352-17.229-7.069-25.674c-0.849-2.642-3.097-5.019-5.162-7.052
			c-6.752-6.655-15.849-5.555-20.853,2.23c-3.712,5.774-5.493,12.044-5.579,18.902c-0.131,10.359-0.653,20.719-0.578,31.074
			c0.036,5.144,0.762,10.331,1.672,15.409c0.835,4.658,3.863,8.025,8.292,9.666c2.731,1.013,5.733,1.298,8.613,1.909
			c1.13-2.661,2.977-5.256,3.231-7.998C604.124,795.416,603.59,790.24,603.623,785.102z"/>
		<path fill="#7E4C2D" d="M608.767,874.097c2.493,3.582,5.958,6.454,10.846,6.235c3.074-0.137,6.041-4.716,6.385-10.251
			c0.36-5.807,0.409-11.636,0.526-17.456c0.146-7.274,0.223-14.549,0.33-21.823c-0.947-4.293-1.968-8.572-2.827-12.883
			c-2.448-12.284-4.831-24.581-7.24-36.874c-1.388-0.484-2.741-1.135-4.169-1.422c-6.628-1.336-8.962,0.074-8.996,5.479
			c-0.033,5.138,0.501,10.314,0.026,15.402c-0.255,2.743-2.102,5.337-3.231,7.998c-1.955,9.259-1.459,18.679-1.851,28.04
			c1.945,9.245,3.707,18.535,5.929,27.713C605.33,867.698,606.758,871.211,608.767,874.097z"/>
		<path fill="#9FC8BD" d="M869.413,858.839c-3.5-3.102-3.063-7.474-1.44-11.455c0.771-1.887,1.641-3.734,2.521-5.579l0,0
			c-0.001-0.001-0.001-0.002-0.001-0.003c-0.726-1.316-1.493-2.59-2.299-3.821c-0.024-0.037-0.047-0.074-0.072-0.11
			c-0.78-1.186-1.603-2.328-2.465-3.432c-0.056-0.072-0.111-0.147-0.168-0.219c-0.853-1.08-1.751-2.116-2.687-3.111
			c-0.065-0.068-0.126-0.141-0.191-0.21c-0.995-1.044-2.036-2.042-3.132-2.988c-4.384,5.564-7.194,11.95-8.739,18.937
			c-0.205,0.93-0.037,2.298,0.535,3.005c7.46,9.224,3.863,22.345,11.181,31.573c1.875,2.367,3.802,4.74,5.994,6.806
			c2.244,2.117,7.387,2.531,10.014,1.036l0,0c0.035-0.829,0.07-1.656,0.109-2.488c0.279-6.015,0.219-11.869-0.353-17.627
			C875.95,865.342,872.921,861.952,869.413,858.839z"/>
		<path fill="#9FC8BD" d="M732.585,926.161c-1.636,1.124-5.095,2.268-6.074,4.504c-0.968,2.21-0.153,5.973,1.228,8.214
			c1.474,2.373,4.313,4.662,6.979,5.32c2.413,0.601,5.855-0.365,7.993-1.851c2.367-1.641,3.766-4.742,2.468-7.964
			C743.133,929.232,739.3,926.411,732.585,926.161z"/>
		<path fill="#9FC8BD" d="M671.368,1118.993c0.605,0.025,1.203,0.182,1.786,0.416c0.554,0.223,1.091,0.519,1.611,0.836
			c0.024,0.015,0.051,0.024,0.075,0.039c0.475-1.112,0.851-2.295,1.035-3.611c0.309-2.192-2.188-5.252-4.159-7.097
			c-0.983-0.899-4.008-0.48-5.587,0.335c-4.749,2.468-7.188,7.014-8.55,11.944c-0.442,1.579,0.155,4.116,1.26,5.281
			c1.22,1.287,3.577,1.5,5.485,2.204c0.584-0.224,1.145-0.477,1.701-0.734c-0.141-0.339-0.272-0.696-0.368-1.1
			C664.535,1122.799,666.806,1118.809,671.368,1118.993z"/>
		<path fill="#9FC8BD" d="M477.293,1069.949c3.939-1.319,6.774-3.246,8.842-5.797c1.125-1.387,2.032-2.953,2.745-4.724
			c1.273-3.177-2.225-9.007-5.753-9.488c-7.386-1.01-14.399,5.525-13.689,12.594c0.01,0.1-0.015,0.196-0.002,0.295
			C469.947,1066.769,475.103,1070.754,477.293,1069.949z"/>
		<path fill="#9FC8BD" d="M727.616,1093.262c4.22-0.167,8.256-3.766,8.664-7.733c0.159-1.519-0.427-3.012-1.393-4.327
			c-2.061-2.803-6.022-4.713-9.398-3.757c-2.826,0.796-5.698,3.695-6.816,6.444c-0.371,0.916-0.548,1.815-0.465,2.615
			C718.536,1089.631,723.81,1093.408,727.616,1093.262z"/>
		<path fill="#9FC8BD" d="M459.66,969.485c-3.588-0.78-7.104,3.642-6.365,9.37c1.545,1.166,3.538,3.56,6.025,4.341
			c3.707,1.155,7.417-3.633,6.534-7.997C465.169,971.901,462.837,970.182,459.66,969.485z"/>
		<path fill="#9FC8BD" d="M809.582,888.065c-1.603,2.21,1.074,5.367,4.636,5.113c1.567-0.119,4.442-2.201,4.326-2.531
			c-0.811-2.24-2.244-4.255-3.524-6.411C812.565,885.908,810.613,886.647,809.582,888.065z"/>
		<path fill="#9FC8BD" d="M445.761,891.356c-3.44,0.233-6.452,3.802-6.384,7.114c0.008,0.4,0.04,0.801,0.144,1.187
			c0.013,0.049,0.039,0.089,0.052,0.136c-0.182,0.239-0.333,0.454-0.529,0.703c0.321,0.07,0.584,0.145,0.887,0.218
			c1.422,3.067,4.937,4.471,8.854,3.285c2.134-0.649,3.802-1.802,4.649-3.611c0.327-0.698,0.557-1.471,0.608-2.382
			C454.232,894.623,449.709,891.084,445.761,891.356z"/>
	</g>
	<g>
		<g>
			<path fill="#EFE07C" d="M536.335,502.835c9.797-8.239,14.963-19.891,12.595-33.803c-3.433-20.163-13.904-34.962-29.982-45.498
				c2.424,1.588,4.712,3.278,6.875,5.064c0.909,1.736,1.378,3.794,1.269,6.037c-0.164,3.447-4.411,7.591-8.365,8.164
				c-5.067,0.717-10.436-4.322-10.2-9.584c0.252-5.764,5.07-10.483,9.977-9.788c0.154,0.022,0.291,0.077,0.443,0.106
				c-2.244-1.471-4.592-2.863-7.05-4.17c-3.915-2.081-8.056-3.437-12.292-4.319c0.289,0.809,0.495,1.64,0.486,2.493
				c-0.036,4.47-5.111,9.38-10.099,9.791c-3.758,0.307-8.146-3.567-8.299-7.321c-0.094-2.375,0.408-4.507,1.346-6.284
				c-0.448,0.01-0.896,0.007-1.343,0.023c-12.758,0.447-35.848,20.871-39.218,33.177c-0.774,2.822-0.912,5.818-0.89,5.665
				c0.418,23.876,6.066,42.392,22.197,56.842c8.164,7.312,17.053,10.969,28.094,10.981
				C509.176,520.428,523.848,513.337,536.335,502.835z M513.317,497.738c-2.673,1.225-5.406,2.348-8.184,3.308
				c-6.73,2.323-13.535,1.426-19.085-2.399c-12.449-8.578-19.938-20.109-22.463-34.011c0,0.001,0,0.003,0,0.004
				c-0.671-0.48-1.391-0.901-2.046-1.397c-4.059-3.094-2.494-11.757,1.92-15.057c-0.002,0.005-0.002,0.01-0.004,0.015
				c2.009-6.369,7.449-11.658,15.693-11.738c2.935-0.028,5.865-0.485,8.797-0.745c8.68-0.884,15.608,2.494,22.124,8.025
				c9.297,7.893,16.542,16.671,17.507,29.457C528.506,485.505,524.541,492.597,513.317,497.738z"/>
			<path fill="#EFE07C" d="M462.553,453.644c0.002-0.937,0.095-1.871,0.254-2.795C462.662,451.775,462.556,452.709,462.553,453.644z
				"/>
			<path fill="#EFE07C" d="M462.846,459.409c-0.188-1.879-0.298-3.796-0.292-5.765C462.548,455.613,462.679,457.519,462.846,459.409
				z"/>
			<path fill="#EFE07C" d="M384.942,496.981c0.61,0.012,1.218,0.019,1.832,0.082c2.838,0.292,7.1,3.432,8.544,6.282
				c6.367,12.577,1.471,29.032-15.135,31.845c-11.215,1.9-18.37-3.093-19.19-14.691c-0.685-9.699,6.21-18.631,15.421-22.06
				c-0.772,0.655-1.462,1.357-1.876,2.108c-1.202,2.165-0.959,5.947,0.11,8.378c1.84,4.212,7.068,6.347,9.728,4.499
				c2.32-1.616,4.132-3.968,5.555-5.385C390.457,504.015,387.944,499.103,384.942,496.981z"/>
			<path fill="#DAA383" d="M462.553,453.644c-0.006,1.969,0.104,3.886,0.292,5.765c0.18,1.774,0.429,3.515,0.74,5.227
				c0,0.001,0,0.003,0,0.004c-0.671-0.48-1.391-0.901-2.046-1.397c-4.059-3.094-2.494-11.757,1.92-15.057
				c-0.002,0.005-0.002,0.01-0.004,0.015c-0.272,0.868-0.493,1.753-0.649,2.648C462.649,451.773,462.556,452.707,462.553,453.644z"
				/>
			<path fill="#DAA383" d="M527.092,434.635c-0.164,3.447-4.411,7.591-8.365,8.164c-5.067,0.717-10.436-4.322-10.2-9.584
				c0.252-5.764,5.07-10.483,9.977-9.788c0.154,0.022,0.291,0.077,0.443,0.106v0c0,0,0,0.001,0.002,0.001
				c2.424,1.588,4.712,3.278,6.875,5.064C526.732,430.334,527.201,432.392,527.092,434.635z"/>
		</g>
		<g>
			<path fill="#EFE07C" d="M788.636,421.969c1.838-9.412,4.345-18.763,3.748-28.517c-0.299-4.888-3.354-8.086-8.423-8.607
				c-6.489-0.666-11.731,1.935-12.506,6.56c-1.276,7.614-2.511,15.235-3.749,22.855c4.81,0.196,8.015,3.08,7.558,6.992
				c-0.494,4.314-4.526,6.752-9.235,5.457c-0.126-0.035-0.215-0.104-0.337-0.143c0.503-3.102,1.015-6.203,1.522-9.305
				c-1.559,9.613-3.115,19.227-4.718,28.833c-1.213,7.276-2.603,14.529-4.188,21.732c-0.216,0.98-2.009,2.176-3.131,2.241
				c-1.213,0.071-3.077-0.734-3.652-1.734c-3.676-6.396-6.769-13.14-10.649-19.401c-3.763-6.071-9.885-8.598-16.89-9.134
				c-4.427-0.338-8.66,5.126-6.901,9.057c0.901,2.015,1.847,4.035,3.023,5.896c1.97,3.126,4.481,5.954,6.148,9.222
				c2.678,5.245,5.309,10.595,7.151,16.169c4.308,13.026,1,17.279-13.463,17.387c-9.608,0.072-19.221-0.099-28.63-2.738
				c-7.156-2.007-14.52-3.114-21.952-1.814c-4.426,0.774-8.455,2.471-11.149,6.511c-1.568,2.35-0.927,6.459,1.309,7.897
				c4.551,2.928,9.572,3.852,14.815,3.677c17.148-0.572,33.705,3.993,50.576,5.805c1.141,0.122,2.394,1.551,3.126,2.677
				c1.393,2.152,0.648,4.714-0.959,6.018c-8.602,6.971-17.368,13.746-26.216,20.404c-7.089,5.334-14.476,10.27-21.517,15.665
				c-2.284,1.749-4.339,4.157-5.631,6.704c-0.862,1.697-0.903,4.527-0.06,6.232c2.417,4.896,11.203,9.365,16.991,5.073
				c0.057-0.042,0.115-0.083,0.172-0.125c-0.557-0.477-1.017-1.2-1.338-2.107c-1.29-3.622-0.445-7.558,1.961-7.489
				c2.529,0.079,5.05,1.475,8.794,2.741c10.556-7.681,21.176-15.273,31.793-22.868c1.78-1.273,3.755-2.283,5.673-3.351
				c1.278-0.711,4.98,1.577,5.044,3.15c0.123,2.922,0.507,5.895,0.144,8.767c-1.31,10.421-2.671,20.836-4.052,31.248
				c0.682-0.269,1.401-0.331,2.1-0.086c2.504,0.89,4.458,3.322,7.606,5.83c-3.205,2.567-5.176,5.004-7.696,5.904
				c-1.176,0.422-2.408-0.085-3.428-1.033c-0.585,4.381-1.165,8.762-1.754,13.142c-0.592,4.397-1.58,8.745-2.056,13.151
				c-0.872,8.055,3.66,12.121,12.178,11.361c3.217-0.287,6.051-1.598,7.104-4.449c1.779-4.816,3.256-9.841,4.054-14.905
				c2.763-17.531,5.091-35.13,7.806-52.669c0.429-2.778,1.749-5.515,3.155-7.987c0.462-0.807,3.121-1.424,3.723-0.905
				c1.773,1.527,3.44,3.197,5.025,4.936c0.163-0.019,0.329-0.071,0.487-0.075c3.494-0.084,7.677,4.189,7.777,7.967
				c0.015,0.502-0.066,1.007-0.202,1.507c3.107,3.283,6.5,6.245,10.489,8.55c3.891,2.251,8.103,3.529,12.738,2.295
				c2.298-0.611,4.994-5.091,3.834-7.086c-1.451-2.494-2.962-5.08-4.973-7.1c-12.225-12.267-20.463-27.055-27.327-42.713
				c-1.851-4.219,1.024-9.142,5.679-10.13c2.887-0.613,5.873-1.606,8.73-1.374c16.153,1.316,32.551-0.274,48.455,4.104
				c7.165,1.972,14.494,3.589,21.851,1.461c1.692-0.489,3.599-2.914,3.919-4.713c0.323-1.813-0.652-4.593-2.05-5.806
				c-2.134-1.853-4.995-3.248-7.768-3.918c-11.481-2.771-22.841-6.221-34.802-6.625c-2.888-0.098-5.754-1.081-8.611-1.748
				c-1.672-0.39-2.638-4.37-1.346-5.625c2.08-2.021,4.099-4.157,6.42-5.868c7.734-5.703,15.767-11.018,23.313-16.953
				c2.78-2.186,4.673-5.586,6.694-8.618c1.352-2.029,0.035-6.647-1.938-8.055c-5.055-3.608-12.347-4.35-16.609-1.168
				c-10.669,7.962-21.061,16.293-31.793,24.167c-4.112,3.017-8.84,5.195-13.287,7.756c-5.536,0.942-5.662,0.797-4.631-5.308
				c0.13-9.516,1.026-18.932,2.341-28.297c-0.005,0.024-0.009,0.048-0.012,0.072c-1.826-1.573-2.912-3.707-2.648-5.651
				c0.224-1.656,2.315-3.867,4.312-4.982c-0.002,0.014-0.005,0.029-0.007,0.043C786.598,432.655,787.594,427.31,788.636,421.969z
				 M762.847,536.701c-1.593,5.168-5.165,8.946-10.347,10.524c-1.604,0.477-3.853-0.791-5.683-1.557
				c-2.323-0.949-3.023-2.801-2.444-4.651c1.207-6.029,5.06-9.195,9.726-11.702c2.816-1.497,7.297-0.7,8.02,1.682
				C762.673,532.832,763.363,535.017,762.847,536.701z"/>
			<path fill="#DAA383" d="M752.5,547.226c-1.604,0.477-3.853-0.791-5.683-1.557c-2.323-0.949-3.023-2.801-2.444-4.651
				c1.207-6.029,5.06-9.195,9.726-11.702c2.816-1.497,7.297-0.7,8.02,1.682c0.555,1.834,1.245,4.019,0.729,5.704
				C761.254,541.869,757.682,545.648,752.5,547.226z"/>
			<path fill="#DAA383" d="M775.265,421.252c-0.494,4.314-4.526,6.752-9.235,5.457c-0.126-0.035-0.215-0.104-0.337-0.143
				c0.503-3.102,1.015-6.203,1.522-9.305c0.165-1.001,0.329-2.001,0.492-3.001l0,0C772.518,414.457,775.722,417.341,775.265,421.252
				z"/>
			<path fill="#DAA383" d="M740.938,589.521c2.504,0.89,4.458,3.322,7.606,5.83c-3.205,2.567-5.176,5.004-7.696,5.904
				c-1.176,0.422-2.408-0.085-3.428-1.033c0,0,0,0,0,0c0.474-3.538,0.948-7.076,1.418-10.615l0,0
				C739.52,589.338,740.239,589.276,740.938,589.521z"/>
			<path fill="#DAA383" d="M781.383,442.948c0.224-1.656,2.315-3.867,4.312-4.982c-0.002,0.014-0.005,0.029-0.007,0.043
				c-0.594,3.5-1.152,7.005-1.645,10.517c-0.005,0.024-0.009,0.048-0.012,0.072C782.206,447.026,781.12,444.892,781.383,442.948z"/>
		</g>
		<g>
			<path fill="#EFE07C" d="M690.057,127.95c-0.013-0.025-0.016-0.058-0.03-0.083c-3.57-6.185-7.072-12.44-11.975-17.588
				c1.642-1.172,3.278-2.353,4.921-3.523c3.822-2.724,7.96-3.356,12.613-1.982c6.82,2.014,9.348,8.408,5.061,13.581
				C697.557,122.083,693.906,125.111,690.057,127.95z"/>
			<path fill="#EFE07C" d="M711.49,186.189c0.934-0.237,1.857-0.52,2.719-0.864C713.347,185.669,712.426,185.948,711.49,186.189z"/>
			<path fill="#EFE07C" d="M719.064,178.494c0.147-3.099-0.639-5.873-3.447-7.604c-7.232-4.458-15.358-5.099-23.537-5.144
				c-11.161-0.061-22.078-1.736-32.849-4.504c-3.703-0.951-5.129-6.373-2.076-8.756c4.031-3.148,8.134-6.206,12.217-9.29
				c-1.867-1.32-3.054-3.504-2.533-5.585c0.724-2.883,2.579-5.151,5.696-5.74c-2.615-4.014-5.237-8.021-7.738-12.103
				c-8.968,6.426-17.937,12.848-26.908,19.268c-3.584,2.565-7.169,5.13-10.836,7.575c-1.71,1.141-5.171-0.216-5.387-2.125
				c-0.491-4.353-1.263-8.758-1.028-13.093c0.558-10.336,1.634-20.645,2.5-30.964c-0.185-0.011-0.368-0.022-0.551-0.033
				c0.417-13.311,0.92-26.62,1.198-39.934c0.078-3.798-1.123-7.236-4.803-9.319c-5.093-2.881-13.393-0.024-14.784,5.345
				c-0.732,2.829-1.164,5.789-1.299,8.709c-0.543,11.824-0.63,23.675-1.435,35.478c-0.802,11.789-1.971,23.573-3.541,35.284
				c-0.867,6.459-6.036,7.648-11.335,3.025c-6.685-5.832-13.135-11.949-20.024-17.526c-2.771-2.244-6.307-3.85-9.754-4.822
				c-1.704-0.48-4.667,0.576-5.84,1.966c-1.149,1.361-1.584,4.381-0.88,6.065c2.632,6.283,7.743,10.699,12.84,14.99
				c3.408,2.87,6.692,5.741,8.593,9.951c1.107,2.447-0.172,7.032-2.686,7.372c-10.215,1.383-20.458,2.534-30.688,3.809
				c-5.103,0.636-10.288,0.976-15.26,2.179c-2.806,0.679-5.441,2.969-4.984,6.435c0.267,2.032,1.188,4.551,2.694,5.74
				c4.719,3.728,10.174,6.107,16.391,5.715c5.167-0.327,10.309-1.214,15.472-1.311c4.398-0.083,8.843,0.377,13.207,1.013
				c5.777,0.841,8.382,7.147,5.078,11.606c-4.459,6.02-10.038,10.765-16.166,15.016c-7.899,5.477-15.685,11.124-23.345,16.93
				c-2.908,2.204-5.456,4.935-7.938,7.638c-2.355,2.566-1.758,7.039,1.059,10.015c0.507,0.535,1.073,1.014,1.623,1.506
				c5.403,4.83,8.598,5.534,13.72,1.788c11.342-8.293,22.424-16.941,33.638-25.409c2.894-2.186,5.798-4.37,8.786-6.419
				c-1.878,0.932-3.746,1.878-5.729,2.354c-1.674,0.405-3.823-0.531-5.55-1.307c-0.596-0.27-1.005-1.997-0.773-2.866
				c0.747-2.83,4.595-5.195,6.967-4.032c2.473,1.205,4.662,2.958,6.937,4.562c0.039-0.026,0.079-0.057,0.118-0.083
				c0.205-0.132,0.423-0.186,0.633-0.295c0.001-0.106,0.01-0.208,0.017-0.311c-0.222-3.775-2.903-6.452-4.812-9.445
				c-1.927-3.043-0.861-5.792,0.614-8.427c2.225-4.007,5.944-5.108,10.258-4.586c2.655,0.321,5.596,4.323,4.598,6.553
				c-1.177,2.604-2.374,5.51-4.404,7.341c-2.792,2.517-6.021,4.462-6.254,8.564c0.005,0.098-0.001,0.202,0,0.302
				c4.66-2.395,10.301,0.879,10.203,6.538c-0.311,17.736-1.077,35.465-1.496,53.2c-0.103,4.383,0.242,8.806,0.763,13.164
				c0.403,3.362,5.812,5.505,8.911,4.01c6.512-3.142,10.544-8.242,11.304-15.347c0.864-8.081,1.111-16.23,1.544-24.354
				c0.43-8.122,0.647-16.258,1.193-24.372c0.197-2.911,1.016-5.791,1.679-8.655c0.605-2.619,5.063-4.662,7.101-3.12
				c4.682,3.546,9.163,7.359,13.811,10.95c4.654,3.594,9.274,7.265,14.201,10.45c1.673,1.081,4.273,1.204,6.384,1.016
				c3.106-0.277,5.739-2.124,6.282-5.272c0.339-1.953-0.02-5.274-1.272-6.062c-12.134-7.634-20.414-19.217-30.372-29.052
				c-2.055-2.029-3.595-4.603-5.25-7.009c-1.382-2.009,0.743-6.639,3.37-7.017c4.344-0.625,8.785-1.575,13.094-1.238
				c10.317,0.808,20.592,2.204,30.864,3.516c9.541,1.218,19.035,2.824,28.594,3.844c1.715,0.183,3.547-0.025,5.323-0.435
				c-0.943,0.213-1.901,0.381-2.851,0.449c0.697-1.09,1.423-2.156,2.248-3.139c0.897-1.08,4.009-1.085,5.714-0.478
				c0.248,0.089,0.49,0.251,0.733,0.39c-0.347,0.347-0.724,0.665-1.123,0.954C717.633,183.192,718.937,181.138,719.064,178.494z
				 M579.228,181.75c-0.396,0.425-0.778,1.165-1.194,1.185c-0.412,0.02-0.861-0.686-1.293-1.074c0.396-0.423,0.78-1.164,1.192-1.18
				C578.351,180.665,578.796,181.364,579.228,181.75z"/>
			<path fill="#DAA383" d="M710.375,183.62c0.897-1.08,4.009-1.085,5.714-0.478c0.248,0.089,0.49,0.251,0.733,0.39
				c-0.347,0.347-0.724,0.665-1.123,0.954c-0.456,0.331-0.946,0.622-1.49,0.839c-0.862,0.344-1.785,0.627-2.719,0.864
				c-0.173,0.043-0.339,0.081-0.512,0.12c-0.943,0.213-1.901,0.381-2.851,0.449C708.824,185.668,709.55,184.603,710.375,183.62z"/>
			<path fill="#DAA383" d="M666.84,137.612c0.724-2.883,2.579-5.151,5.696-5.74v0c1.015,1.561,1.977,3.156,3.008,4.707
				c0.29,0.434,0.623,0.825,0.983,1.177c-2.41,1.78-4.764,3.635-7.154,5.441l0,0C667.506,141.878,666.319,139.694,666.84,137.612z"
				/>
		</g>
	</g>
</g>
</svg>
